<?xml version="1.0" encoding="utf-8"?>
<!-- Generator: Adobe Illustrator 25.0.0, SVG Export Plug-In . SVG Version: 6.00 Build 0)  -->
<svg version="1.1" id="Layer_1" xmlns="http://www.w3.org/2000/svg" xmlns:xlink="http://www.w3.org/1999/xlink" x="0px" y="0px"
	 viewBox="0 0 500 500.5" style="enable-background:new 0 0 500 500.5;" xml:space="preserve">
<style type="text/css">
	.indie-icon-camera-0{clip-path:url(#SVGID_2_);}
	.indie-icon-camera-1{fill:none;stroke:#505050;stroke-width:16;stroke-linecap:round;stroke-miterlimit:10;}
</style>
<g>
	<defs>
		<rect id="SVGID_1_" x="0.5" width="500" height="500"/>
	</defs>
	<clipPath id="SVGID_2_">
		<use xlink:href="#SVGID_1_"  style="overflow:visible;"/>
	</clipPath>
	<g class="indie-icon-camera-0">
		<path class="indie-icon-camera-1" d="M378.8,150.8h-52.1c-3.5,0-6.3-2.8-6.3-6.3l0,0c0-13.2-10.7-23.8-23.8-23.8h-93.1
			c-13.2,0-23.8,10.7-23.8,23.8l0,0c0,3.5-2.8,6.3-6.3,6.3h-52.1c-21,0-37.9,17-37.9,37.9v153.2c0,21,17,37.9,37.9,37.9h257.5
			c21,0,37.9-17,37.9-37.9V188.7C416.7,167.8,399.7,150.8,378.8,150.8z"/>
		<circle class="indie-icon-camera-1" cx="250" cy="267.4" r="72"/>
		<g>
			<path class="indie-icon-camera-1" d="M369.4,193.1c-3.9,0-7.1,3.2-7.1,7.1s3.2,7.1,7.1,7.1s7.1-3.2,7.1-7.1S373.3,193.1,369.4,193.1L369.4,193.1z
				"/>
		</g>
	</g>
</g>
</svg>
