<?xml version="1.0" encoding="utf-8"?>
<!-- Generator: Adobe Illustrator 25.0.0, SVG Export Plug-In . SVG Version: 6.00 Build 0)  -->
<svg version="1.1" id="Layer_1" xmlns="http://www.w3.org/2000/svg" xmlns:xlink="http://www.w3.org/1999/xlink" x="0px" y="0px"
	 viewBox="0 0 500 500" style="enable-background:new 0 0 500 500;" xml:space="preserve">
<style type="text/css">
	.indie-icon-grid-0{clip-path:url(#SVGID_2_);}
	.indie-icon-grid-1{fill:none;stroke:#505050;stroke-width:16;stroke-linecap:round;stroke-miterlimit:10;}
</style>
<g>
	<defs>
		<rect id="SVGID_1_" x="0" width="500" height="500"/>
	</defs>
	<clipPath id="SVGID_2_">
		<use xlink:href="#SVGID_1_"  style="overflow:visible;"/>
	</clipPath>
	<g class="indie-icon-grid-0">
		<path class="indie-icon-grid-1" d="M205.3,225.7H101.1c-9.8,0-17.8-7.9-17.8-17.8V103.8c0-9.8,7.9-17.8,17.8-17.8h104.2
			c9.8,0,17.8,7.9,17.8,17.8V208C223,217.8,215,225.7,205.3,225.7z"/>
		<path class="indie-icon-grid-1" d="M205.3,414H101.1c-9.8,0-17.8-7.9-17.8-17.8V292c0-9.8,7.9-17.8,17.8-17.8h104.2c9.8,0,17.8,7.9,17.8,17.8
			v104.2C223,406,215,414,205.3,414z"/>
		<path class="indie-icon-grid-1" d="M398.9,225.7H294.7c-9.8,0-17.8-7.9-17.8-17.8V103.8c0-9.8,7.9-17.8,17.8-17.8h104.2
			c9.8,0,17.8,7.9,17.8,17.8V208C416.7,217.8,408.8,225.7,398.9,225.7z"/>
		<path class="indie-icon-grid-1" d="M398.9,414H294.7c-9.8,0-17.8-7.9-17.8-17.8V292c0-9.8,7.9-17.8,17.8-17.8h104.2c9.8,0,17.8,7.9,17.8,17.8
			v104.2C416.7,406,408.8,414,398.9,414z"/>
	</g>
</g>
</svg>
