<?xml version="1.0" encoding="utf-8"?>
<!-- Generator: Adobe Illustrator 25.0.0, SVG Export Plug-In . SVG Version: 6.00 Build 0)  -->
<svg version="1.1" id="Layer_1" xmlns="http://www.w3.org/2000/svg" xmlns:xlink="http://www.w3.org/1999/xlink" x="0px" y="0px"
	 viewBox="0 0 500 500" style="enable-background:new 0 0 500 500;" xml:space="preserve">
<style type="text/css">
	.indie-icon-season-winter-0{clip-path:url(#SVGID_2_);}
	.indie-icon-season-winter-1{fill:none;stroke:#505050;stroke-width:16;stroke-linecap:round;stroke-miterlimit:10;}
</style>
<g>
	<defs>
		<rect id="SVGID_1_" width="500" height="500"/>
	</defs>
	<clipPath id="SVGID_2_">
		<use xlink:href="#SVGID_1_"  style="overflow:visible;"/>
	</clipPath>
	<g class="indie-icon-season-winter-0">
		<g>
			<line class="indie-icon-season-winter-1" x1="250" y1="83.3" x2="250" y2="416.7"/>
			<line class="indie-icon-season-winter-1" x1="250" y1="138.8" x2="291.1" y2="97.9"/>
			<line class="indie-icon-season-winter-1" x1="250" y1="138.8" x2="208.9" y2="97.9"/>
			<line class="indie-icon-season-winter-1" x1="250" y1="361.2" x2="208.9" y2="402.1"/>
			<line class="indie-icon-season-winter-1" x1="250" y1="361.2" x2="291.1" y2="402.1"/>
		</g>
		<g>
			<line class="indie-icon-season-winter-1" x1="105.6" y1="333.4" x2="394.4" y2="166.6"/>
			<line class="indie-icon-season-winter-1" x1="153.7" y1="305.6" x2="97.7" y2="290.5"/>
			<line class="indie-icon-season-winter-1" x1="153.7" y1="305.6" x2="138.8" y2="361.7"/>
			<line class="indie-icon-season-winter-1" x1="346.3" y1="194.4" x2="402.3" y2="209.5"/>
			<line class="indie-icon-season-winter-1" x1="346.3" y1="194.4" x2="361.2" y2="138.3"/>
		</g>
		<g>
			<line class="indie-icon-season-winter-1" x1="105.6" y1="166.6" x2="394.4" y2="333.4"/>
			<line class="indie-icon-season-winter-1" x1="153.7" y1="194.4" x2="138.8" y2="138.3"/>
			<line class="indie-icon-season-winter-1" x1="153.7" y1="194.4" x2="97.7" y2="209.5"/>
			<line class="indie-icon-season-winter-1" x1="346.3" y1="305.6" x2="361.2" y2="361.7"/>
			<line class="indie-icon-season-winter-1" x1="346.3" y1="305.6" x2="402.3" y2="290.5"/>
		</g>
	</g>
</g>
</svg>
