<?xml version="1.0" encoding="utf-8"?>
<!-- Generator: Adobe Illustrator 25.0.0, SVG Export Plug-In . SVG Version: 6.00 Build 0)  -->
<svg version="1.1" id="Layer_1" xmlns="http://www.w3.org/2000/svg" xmlns:xlink="http://www.w3.org/1999/xlink" x="0px" y="0px"
	 viewBox="0 0 500 500" style="enable-background:new 0 0 500 500;" xml:space="preserve">
<style type="text/css">
	.indie-icon-ruler-0{clip-path:url(#SVGID_2_);}
	.indie-icon-ruler-1{fill:none;stroke:#505050;stroke-width:16;stroke-linecap:round;stroke-miterlimit:10;}
</style>
<g>
	<defs>
		<rect id="SVGID_1_" x="0.5" width="500" height="500"/>
	</defs>
	<clipPath id="SVGID_2_">
		<use xlink:href="#SVGID_1_"  style="overflow:visible;"/>
	</clipPath>
	<g class="indie-icon-ruler-0">
		<path class="indie-icon-ruler-1" d="M132.5,413.4l-45.9-45.9c-4.3-4.3-4.3-11.4,0-15.7L351.9,86.6c4.3-4.3,11.4-4.3,15.7,0l45.9,45.9
			c4.3,4.3,4.3,11.4,0,15.7L148.1,413.4C143.8,417.8,136.8,417.8,132.5,413.4z"/>
		<line class="indie-icon-ruler-1" x1="381.5" y1="100.5" x2="100.5" y2="381.5"/>
		<line class="indie-icon-ruler-1" x1="256" y1="305.6" x2="234.9" y2="284.5"/>
		<line class="indie-icon-ruler-1" x1="301.3" y1="260.3" x2="280.2" y2="239.1"/>
		<line class="indie-icon-ruler-1" x1="346.7" y1="214.9" x2="325.5" y2="193.8"/>
		<line class="indie-icon-ruler-1" x1="392" y1="169.6" x2="370.8" y2="148.5"/>
		<line class="indie-icon-ruler-1" x1="369.3" y1="192.3" x2="356.6" y2="179.6"/>
		<line class="indie-icon-ruler-1" x1="324" y1="237.6" x2="311.3" y2="224.9"/>
		<line class="indie-icon-ruler-1" x1="278.7" y1="282.9" x2="266" y2="270.2"/>
		<line class="indie-icon-ruler-1" x1="233.3" y1="328.3" x2="220.6" y2="315.6"/>
		<line class="indie-icon-ruler-1" x1="188" y1="373.6" x2="175.3" y2="360.9"/>
		<line class="indie-icon-ruler-1" x1="165.3" y1="396.2" x2="144.2" y2="375.1"/>
		<line class="indie-icon-ruler-1" x1="210.7" y1="350.9" x2="189.5" y2="329.8"/>
	</g>
</g>
</svg>
