<?xml version="1.0" encoding="utf-8"?>
<!-- Generator: Adobe Illustrator 25.0.0, SVG Export Plug-In . SVG Version: 6.00 Build 0)  -->
<svg version="1.1" id="Layer_1" xmlns="http://www.w3.org/2000/svg" xmlns:xlink="http://www.w3.org/1999/xlink" x="0px" y="0px"
	 viewBox="0 0 500 500" style="enable-background:new 0 0 500 500;" xml:space="preserve">
<style type="text/css">
	.indie-icon-season-autumn-0{clip-path:url(#SVGID_2_);}
	.indie-icon-season-autumn-1{fill:none;stroke:#505050;stroke-width:16;stroke-linecap:round;stroke-miterlimit:10;}
</style>
<g>
	<defs>
		<rect id="SVGID_1_" width="500" height="500"/>
	</defs>
	<clipPath id="SVGID_2_">
		<use xlink:href="#SVGID_1_"  style="overflow:visible;"/>
	</clipPath>
	<g class="indie-icon-season-autumn-0">
		<path class="indie-icon-season-autumn-1" d="M310.4,416.7c0,0-60.4-20.6-60.4-100.2V205.6"/>
		<g>
			<polyline class="indie-icon-season-autumn-1" points="306.2,268.7 250,316.5 193.7,268.7 			"/>
		</g>
		<g>
			<path class="indie-icon-season-autumn-1" d="M257.7,318.4l35,8.7c5.5,1.4,11.4,0.2,15.9-3.3l87.1-66.7c1.1-0.8,0.4-2.6-1-2.5
				c-12.6,0.8-42.1-2.1-6.7-54.7c0.9-1.3-0.7-2.8-1.9-2c-14.9,9.9-48.9,26.8-50-25.4c0-1.2-1.4-1.8-2.3-1.1l-39.9,34.1
				c-1,0.9-2.6,0-2.3-1.3l14.9-80.2c0.3-1.4-1.5-2.3-2.4-1.2c-10.3,11.4-41.1,37.6-52.6-38.2c-0.2-1.6-2.6-1.6-2.8,0
				c-11.5,75.8-42.3,49.6-52.6,38.2c-1-1.1-2.7-0.2-2.4,1.2l14.9,80.2c0.3,1.3-1.3,2.2-2.3,1.3l-40-34.1c-0.9-0.8-2.3-0.1-2.3,1.1
				c-1.1,52.2-35.1,35.3-50,25.4c-1.3-0.9-2.8,0.7-1.9,2c35.4,52.6,6,55.5-6.7,54.7c-1.4-0.1-2.1,1.7-1,2.5l87.4,66.9
				c4.4,3.3,10,4.5,15.3,3.2l35.3-8.8C247.3,317.2,252.6,317.2,257.7,318.4z"/>
		</g>
	</g>
</g>
</svg>
