<?xml version="1.0" encoding="utf-8"?>
<!-- Generator: Adobe Illustrator 25.0.0, SVG Export Plug-In . SVG Version: 6.00 Build 0)  -->
<svg version="1.1" id="Layer_1" xmlns="http://www.w3.org/2000/svg" xmlns:xlink="http://www.w3.org/1999/xlink" x="0px" y="0px"
	 viewBox="0 0 500 500" style="enable-background:new 0 0 500 500;" xml:space="preserve">
<style type="text/css">
	.indie-icon-calendar-0{clip-path:url(#SVGID_2_);}
	.indie-icon-calendar-1{fill:none;stroke:#505050;stroke-width:16;stroke-linecap:round;stroke-miterlimit:10;}
</style>
<g>
	<defs>
		<rect id="SVGID_1_" x="0.5" width="500" height="500"/>
	</defs>
	<clipPath id="SVGID_2_">
		<use xlink:href="#SVGID_1_"  style="overflow:visible;"/>
	</clipPath>
	<g class="indie-icon-calendar-0">
		<path class="indie-icon-calendar-1" d="M167.6,122.4h164.8"/>
		<path class="indie-icon-calendar-1" d="M369.7,122.4h26.7c11.2,0,20.3,9.1,20.3,20.3v253.6c0,11.2-9.1,20.3-20.3,20.3H103.6
			c-11.2,0-20.3-9.1-20.3-20.3V142.7c0-11.2,9.1-20.3,20.3-20.3h26.7"/>
		<path class="indie-icon-calendar-1" d="M416.6,187.9H83.3"/>
		<path class="indie-icon-calendar-1" d="M192.1,300.2H143c-5.3,0-9.6-4.3-9.6-9.6v-53.3c0-5.3,4.3-9.6,9.6-9.6h53.3c5.3,0,9.6,4.3,9.6,9.6v49.1
			C205.9,294,199.7,300.2,192.1,300.2z"/>
		<path class="indie-icon-calendar-1" d="M148.9,161.6L148.9,161.6c-10.3,0-18.7-8.4-18.7-18.7V102c0-10.3,8.4-18.7,18.7-18.7l0,0
			c10.3,0,18.7,8.4,18.7,18.7v40.9C167.6,153.2,159.2,161.6,148.9,161.6z"/>
		<path class="indie-icon-calendar-1" d="M351,161.6L351,161.6c-10.3,0-18.7-8.4-18.7-18.7V102c0-10.3,8.4-18.7,18.7-18.7l0,0
			c10.3,0,18.7,8.4,18.7,18.7v40.9C369.7,153.2,361.3,161.6,351,161.6z"/>
	</g>
</g>
</svg>
