<?xml version="1.0" encoding="utf-8"?>
<!-- Generator: Adobe Illustrator 25.0.0, SVG Export Plug-In . SVG Version: 6.00 Build 0)  -->
<svg version="1.1" id="Layer_1" xmlns="http://www.w3.org/2000/svg" xmlns:xlink="http://www.w3.org/1999/xlink" x="0px" y="0px"
	 viewBox="0 0 500 500" style="enable-background:new 0 0 500 500;" xml:space="preserve">
<style type="text/css">
	.indie-icon-shield-up-0{clip-path:url(#SVGID_2_);}
	.indie-icon-shield-up-1{fill:none;stroke:#505050;stroke-width:16;stroke-linecap:round;stroke-miterlimit:10;}
</style>
<g>
	<defs>
		<rect id="SVGID_1_" x="0.5" width="500" height="500"/>
	</defs>
	<clipPath id="SVGID_2_">
		<use xlink:href="#SVGID_1_"  style="overflow:visible;"/>
	</clipPath>
	<g class="indie-icon-shield-up-0">
		<path class="indie-icon-shield-up-1" d="M242.4,414.7C132.7,353.8,119,270.6,117.7,260.2c-0.1-0.6-0.1-1.3-0.1-1.9V130c0-8.2,6.2-15,14.4-15.7
			c58.3-5.1,95.9-21.6,110.8-29.3c4.5-2.3,9.9-2.3,14.5,0c14.9,7.7,52.6,24.2,110.8,29.3c8.1,0.7,14.4,7.5,14.4,15.7v128.3
			c0,0.6,0,1.3-0.1,1.9c-1.3,10.4-15,93.6-124.7,154.5C252.9,417.4,247.1,417.4,242.4,414.7z"/>
		<g>
			<path class="indie-icon-shield-up-1" d="M289,229.8l-34.6-34.6c-2.4-2.4-6.4-2.4-8.8,0L211,229.8"/>
			<line class="indie-icon-shield-up-1" x1="250" y1="193.4" x2="250" y2="283.7"/>
		</g>
	</g>
</g>
</svg>
