<?xml version="1.0" encoding="utf-8"?>
<!-- Generator: Adobe Illustrator 25.0.0, SVG Export Plug-In . SVG Version: 6.00 Build 0)  -->
<svg version="1.1" id="Layer_1" xmlns="http://www.w3.org/2000/svg" xmlns:xlink="http://www.w3.org/1999/xlink" x="0px" y="0px"
	 viewBox="0 0 500 500" style="enable-background:new 0 0 500 500;" xml:space="preserve">
<style type="text/css">
	.indie-icon-start-0{clip-path:url(#SVGID_2_);fill:none;stroke:#505050;stroke-width:16;stroke-linecap:round;stroke-miterlimit:10;}
</style>
<g>
	<defs>
		<rect id="SVGID_1_" x="0.5" width="500" height="500"/>
	</defs>
	<clipPath id="SVGID_2_">
		<use xlink:href="#SVGID_1_"  style="overflow:visible;"/>
	</clipPath>
	<path class="indie-icon-start-0" d="M262.5,98.6l40.7,82.4c2,4.1,6,7,10.5,7.7l90.9,13.2c11.5,1.7,16.1,15.8,7.8,23.9l-65.8,64.1
		c-3.3,3.2-4.8,7.8-4,12.4l15.5,90.6c2,11.4-10,20.2-20.3,14.8l-81.3-42.8c-4.1-2.1-8.9-2.1-13,0l-81.3,42.8
		c-10.3,5.4-22.3-3.3-20.3-14.8l15.5-90.6c0.8-4.5-0.7-9.2-4-12.4l-65.8-64.1c-8.3-8.1-3.7-22.2,7.8-23.9l90.9-13.2
		c4.6-0.7,8.5-3.5,10.5-7.7l40.7-82.4C242.6,88.2,257.4,88.2,262.5,98.6z"/>
</g>
</svg>
