<?xml version="1.0" encoding="utf-8"?>
<!-- Generator: Adobe Illustrator 25.0.0, SVG Export Plug-In . SVG Version: 6.00 Build 0)  -->
<svg version="1.1" id="Layer_1" xmlns="http://www.w3.org/2000/svg" xmlns:xlink="http://www.w3.org/1999/xlink" x="0px" y="0px"
	 viewBox="0 0 500 500" style="enable-background:new 0 0 500 500;" xml:space="preserve">
<style type="text/css">
	.indie-icon-call-center-1{clip-path:url(#SVGID_2_);}
	.indie-icon-call-center-2{fill:none;stroke:#505050;stroke-width:16;stroke-linecap:round;stroke-miterlimit:10;}
</style>
<g>
	<defs>
		<rect id="SVGID_1_" width="500" height="500"/>
	</defs>
	<clipPath id="SVGID_2_">
		<use xlink:href="#SVGID_1_"  style="overflow:visible;"/>
	</clipPath>
	<g class="indie-icon-call-center-1">
		<path class="indie-icon-call-center-2" d="M143.9,217.3v-27.8c0-58.6,47.5-106.1,106.1-106.1s106.1,47.5,106.1,106.1v28.1"/>
		<g>
			<path class="indie-icon-call-center-2" d="M146.4,350.2h5.6c5.3,0,9.7-4.3,9.7-9.7v-113c0-5.3-4.3-9.7-9.7-9.7h-5.6c-24.2,0-43.8,19.6-43.8,43.8v44.8
				C102.6,330.6,122.2,350.2,146.4,350.2z"/>
			<path class="indie-icon-call-center-2" d="M353.7,350.2H348c-5.3,0-9.7-4.3-9.7-9.7v-113c0-5.3,4.3-9.7,9.7-9.7h5.6c24.2,0,43.8,19.6,43.8,43.8v44.8
				C397.5,330.6,377.9,350.2,353.7,350.2z"/>
		</g>
		<path class="indie-icon-call-center-2" d="M257.2,416.6h-25.8c-8.3,0-15.1-6.8-15.1-15.1v-3.2c0-8.3,6.8-15.1,15.1-15.1h25.8c8.3,0,15.1,6.8,15.1,15.1
			v3.2C272.3,409.8,265.6,416.6,257.2,416.6z"/>
		<path class="indie-icon-call-center-2" d="M352,351.3v18c0,16.8-13.6,30.4-30.4,30.4h-49.2"/>
	</g>
</g>
</svg>
