<?xml version="1.0" encoding="utf-8"?>
<!-- Generator: Adobe Illustrator 25.0.0, SVG Export Plug-In . SVG Version: 6.00 Build 0)  -->
<svg version="1.1" id="Layer_1" xmlns="http://www.w3.org/2000/svg" xmlns:xlink="http://www.w3.org/1999/xlink" x="0px" y="0px"
	 viewBox="0 0 500 500" style="enable-background:new 0 0 500 500;" xml:space="preserve">
<style type="text/css">
	.indie-icon-eye-hide-0{clip-path:url(#SVGID_2_);}
	.indie-icon-eye-hide-1{fill:none;stroke:#505050;stroke-width:16;stroke-linecap:round;stroke-miterlimit:10;}
</style>
<g>
	<defs>
		<rect id="SVGID_1_" x="0.5" width="500" height="500"/>
	</defs>
	<clipPath id="SVGID_2_">
		<use xlink:href="#SVGID_1_"  style="overflow:visible;"/>
	</clipPath>
	<g class="indie-icon-eye-hide-0">
		<path class="indie-icon-eye-hide-1" d="M296,250c0,25.4-20.6,45.9-45.9,45.9"/>
		<path class="indie-icon-eye-hide-1" d="M217.5,282.5c-8.3-8.3-13.5-19.8-13.5-32.5c0-25.4,20.6-45.9,45.9-45.9c12.7,0,24.2,5.1,32.5,13.5"/>
		<g>
			<path class="indie-icon-eye-hide-1" d="M164.3,335.7c-50.6-24.8-74.5-64.4-74.5-64.4c-14.8-23.6,0-42.5,0-42.5S140.2,145,250.1,145
				c34.2,0,62.7,8.1,85.6,19.3"/>
			<path class="indie-icon-eye-hide-1" d="M364.5,181.5c31.1,22.6,45.9,47.2,45.9,47.2s14.2,19.4,0,42.5c0,0-50.4,83.8-160.2,83.8
				c-19.3,0-36.7-2.6-52.4-6.8"/>
		</g>
		<line class="indie-icon-eye-hide-1" x1="387.3" y1="112.7" x2="112.7" y2="387.3"/>
	</g>
</g>
</svg>
