<?xml version="1.0" encoding="utf-8"?>
<!-- Generator: Adobe Illustrator 25.0.0, SVG Export Plug-In . SVG Version: 6.00 Build 0)  -->
<svg version="1.1" id="Layer_1" xmlns="http://www.w3.org/2000/svg" xmlns:xlink="http://www.w3.org/1999/xlink" x="0px" y="0px"
	 viewBox="0 0 500 500" style="enable-background:new 0 0 500 500;" xml:space="preserve">
<style type="text/css">
	.indie-icon-question-0{clip-path:url(#SVGID_2_);}
	.indie-icon-question-1{fill:none;stroke:#505050;stroke-width:16;stroke-linecap:round;stroke-miterlimit:10;}
</style>
<g>
	<defs>
		<rect id="SVGID_1_" x="0" width="500" height="500"/>
	</defs>
	<clipPath id="SVGID_2_">
		<use xlink:href="#SVGID_1_"  style="overflow:visible;"/>
	</clipPath>
	<g class="indie-icon-question-0">
		<circle class="indie-icon-question-1" cx="250" cy="250" r="166.7"/>
		<circle class="indie-icon-question-1" cx="250" cy="336.9" r="24"/>
		<g>
			<path class="indie-icon-question-1" d="M249.7,279.9c-8.7,0-15.8-7.1-15.8-15.8c0-24,9.9-41.7,27.8-49.8c7.4-4.2,12-11.9,12-20.4
				c0-12.8-10.4-23.3-23.3-23.3c-6.8,0-13.3,3-17.7,8.1c-5.7,6.6-15.6,7.4-22.2,1.7c-6.6-5.7-7.4-15.6-1.7-22.2
				c10.4-12.2,25.6-19.1,41.6-19.1c30.2,0,54.8,24.6,54.8,54.8c0,20.3-11.2,38.9-29.2,48.5l-1.2,0.6l-0.5,0.2
				c-2.8,1.3-8.9,5.2-8.9,20.9C265.5,272.8,258.4,279.9,249.7,279.9z"/>
		</g>
	</g>
</g>
</svg>
