<?xml version="1.0" encoding="utf-8"?>
<!-- Generator: Adobe Illustrator 25.0.0, SVG Export Plug-In . SVG Version: 6.00 Build 0)  -->
<svg version="1.1" id="Layer_1" xmlns="http://www.w3.org/2000/svg" xmlns:xlink="http://www.w3.org/1999/xlink" x="0px" y="0px"
	 viewBox="0 0 500 500" style="enable-background:new 0 0 500 500;" xml:space="preserve">
<style type="text/css">
	.indie-icon-user-logged-0{clip-path:url(#SVGID_2_);}
	.indie-icon-user-logged-1{fill:none;stroke:#505050;stroke-width:16;stroke-linecap:round;stroke-miterlimit:9.9999;}
	.indie-icon-user-logged-2{fill:none;stroke:#505050;stroke-width:16;stroke-linecap:round;stroke-miterlimit:10;}
</style>
<g>
	<defs>
		<rect id="SVGID_1_" width="500" height="500"/>
	</defs>
	<clipPath id="SVGID_2_">
		<use xlink:href="#SVGID_1_"  style="overflow:visible;"/>
	</clipPath>
	<g class="indie-icon-user-logged-0">
		
			<ellipse transform="matrix(0.7071 -0.7071 0.7071 0.7071 -103.0081 248.6835)" class="indie-icon-user-logged-1" cx="248.7" cy="248.7" rx="164.9" ry="165.9"/>
		<g>
			<g>
				<g>
					<path class="indie-icon-user-logged-2" d="M245.3,143.1c-34.2,1.7-61.7,29.1-63.4,63.4c-2,40.4,29.8,72.2,70.2,70.2c34.2-1.7,61.7-29.1,63.4-63.4
						C317.5,172.9,285.6,141.1,245.3,143.1z M219.1,209.8c0-16.3,13.2-29.5,29.5-29.5l0,0c16.3,0,29.5,13.2,29.5,29.5l0,0
						c0,5.3-1.4,10.3-3.9,14.6c0,0.1-0.1,0.1-0.2,0.1h-50.9c-0.1,0-0.2,0-0.2-0.1C220.6,220.1,219.1,215.2,219.1,209.8L219.1,209.8z
						"/>
				</g>
			</g>
		</g>
		<path class="indie-icon-user-logged-2" d="M126.4,355c7-8,14.7-15.3,23.1-21.8c9.2-7.1,19.1-13.3,29.6-18.3c10.7-5.1,21.9-9,33.4-11.6
			c11.8-2.7,24-4.1,36.2-4.1c12.2,0,24.4,1.4,36.2,4.1c11.5,2.6,22.7,6.5,33.4,11.6c10.5,5,20.4,11.1,29.6,18.3"/>
	</g>
</g>
</svg>
