<?xml version="1.0" encoding="utf-8"?>
<!-- Generator: Adobe Illustrator 25.0.0, SVG Export Plug-In . SVG Version: 6.00 Build 0)  -->
<svg version="1.1" id="Layer_1" xmlns="http://www.w3.org/2000/svg" xmlns:xlink="http://www.w3.org/1999/xlink" x="0px" y="0px"
	 viewBox="0 0 500 500" style="enable-background:new 0 0 500 500;" xml:space="preserve">
<style type="text/css">
	.indie-icon-settings-0{clip-path:url(#SVGID_2_);}
	.indie-icon-settings-1{fill:none;stroke:#505050;stroke-width:16;stroke-linecap:round;stroke-miterlimit:10;}
</style>
<g>
	<defs>
		<rect id="SVGID_1_" x="0.5" width="500" height="500"/>
	</defs>
	<clipPath id="SVGID_2_">
		<use xlink:href="#SVGID_1_"  style="overflow:visible;"/>
	</clipPath>
	<g class="indie-icon-settings-0">
		<circle class="indie-icon-settings-1" cx="250" cy="250" r="38.7"/>
		<g>
			<path class="indie-icon-settings-1" d="M267.4,84.2c-13.4-1.4-27-1.2-40.5,0.7c-6.7,0.9-11.1,7.3-9.7,13.9l4.4,20.2c1.2,5.6-1.8,11.3-7.2,13.3
				c-8.6,3.2-18.7,8-25.8,11.6c-5.2,2.6-11.4,1-14.7-3.7l-12-17.2c-3.8-5.5-11.6-6.6-16.8-2.4c-10.7,8.7-20.1,18.5-28.1,29.1
				c-4,5.4-2.7,13,3,16.7l16.9,10.9c5.1,3.3,6.8,9.8,3.9,15.2c-4.3,8.1-7.6,16.5-9.9,25.3c-1.6,5.8-7.3,9.5-13.2,8.4l-19.8-3.6
				c-6.6-1.2-12.9,3.5-13.6,10.2c-1.4,13.4-1.2,27,0.7,40.5c0.9,6.7,7.3,11.1,13.9,9.7l20.2-4.4c5.6-1.2,11.3,1.8,13.3,7.2
				c3.2,8.6,8,18.7,11.6,25.9c2.6,5.2,1,11.4-3.7,14.7l-17.2,12c-5.5,3.8-6.6,11.6-2.4,16.8c8.7,10.7,18.5,20.1,29.1,28.1
				c5.4,4,13,2.7,16.7-3l10.9-16.9c3.3-5.1,9.8-6.8,15.2-3.9c8.1,4.3,16.5,7.6,25.3,9.9c5.8,1.6,9.5,7.3,8.4,13.2l-3.6,19.8
				c-1.2,6.6,3.5,12.9,10.2,13.6c13.4,1.4,27,1.2,40.5-0.7c6.7-0.9,11.1-7.3,9.7-13.9l-4.4-20.2c-1.2-5.6,1.8-11.3,7.2-13.3
				c8.6-3.2,18.7-8,25.9-11.6c5.2-2.6,11.4-1,14.7,3.7l12,17.2c3.8,5.5,11.6,6.6,16.8,2.4c10.7-8.7,20.1-18.5,28.1-29.1
				c4-5.4,2.7-13-3-16.7l-16.9-10.9c-5.1-3.3-6.8-9.8-3.9-15.2c4.3-8.1,7.6-16.5,9.9-25.3c1.6-5.8,7.3-9.5,13.2-8.4l19.8,3.6
				c6.6,1.2,12.9-3.5,13.6-10.2c1.4-13.4,1.2-27-0.7-40.5c-0.9-6.7-7.3-11.1-13.9-9.7l-20.2,4.4c-5.6,1.2-11.3-1.8-13.3-7.2
				c-3.2-8.6-8-18.7-11.6-25.9c-2.6-5.2-1-11.4,3.7-14.7l17.2-12c5.5-3.8,6.6-11.6,2.4-16.8c-8.7-10.7-18.5-20.1-29.1-28.1
				c-5.4-4-13-2.7-16.7,3L323,136.8c-3.3,5.1-9.8,6.8-15.2,3.9c-8.1-4.3-16.5-7.6-25.3-9.9c-5.8-1.6-9.5-7.3-8.4-13.2l3.6-19.8
				C278.7,91.2,274.1,84.9,267.4,84.2z"/>
		</g>
	</g>
</g>
</svg>
