<?xml version="1.0" encoding="utf-8"?>
<!-- Generator: Adobe Illustrator 25.0.0, SVG Export Plug-In . SVG Version: 6.00 Build 0)  -->
<svg version="1.1" id="Layer_1" xmlns="http://www.w3.org/2000/svg" xmlns:xlink="http://www.w3.org/1999/xlink" x="0px" y="0px"
	 viewBox="0 0 500 500" style="enable-background:new 0 0 500 500;" xml:space="preserve">
<style type="text/css">
	.indie-icon-mail-0{clip-path:url(#SVGID_2_);}
	.indie-icon-mail-1{fill:none;stroke:#505050;stroke-width:16;stroke-linecap:round;stroke-miterlimit:10;}
</style>
<g>
	<defs>
		<rect id="SVGID_1_" x="0.5" width="500" height="500"/>
	</defs>
	<clipPath id="SVGID_2_">
		<use xlink:href="#SVGID_1_"  style="overflow:visible;"/>
	</clipPath>
	<g class="indie-icon-mail-0">
		<path class="indie-icon-mail-1" d="M393.4,131.6H106.6c-12.9,0-23.3,10.4-23.3,23.3V345c0,12.9,10.4,23.3,23.3,23.3h286.7
			c12.9,0,23.3-10.4,23.3-23.3V155C416.7,142.1,406.3,131.6,393.4,131.6z"/>
		<path class="indie-icon-mail-1" d="M393.4,131.6H106.6c-12.9,0-23.3,10.4-23.3,23.3V345c0,12.9,10.4,23.3,23.3,23.3h286.7
			c12.9,0,23.3-10.4,23.3-23.3V155C416.7,142.1,406.3,131.6,393.4,131.6z"/>
		<path class="indie-icon-mail-1" d="M91.5,137.2c-9.1,6.8-10.5,22.6-1.4,29.4l144.4,108.3c9.1,6.8,23.9,6.8,33,0l122.6-92"/>
	</g>
</g>
</svg>
