<?xml version="1.0" encoding="utf-8"?>
<!-- Generator: Adobe Illustrator 25.0.0, SVG Export Plug-In . SVG Version: 6.00 Build 0)  -->
<svg version="1.1" id="Layer_1" xmlns="http://www.w3.org/2000/svg" xmlns:xlink="http://www.w3.org/1999/xlink" x="0px" y="0px"
	 viewBox="0 0 500 500" style="enable-background:new 0 0 500 500;" xml:space="preserve">
<style type="text/css">
	.indie-icon-pin-0{clip-path:url(#SVGID_2_);fill:none;stroke:#505050;stroke-width:16;stroke-linecap:round;stroke-miterlimit:10;}
</style>
<g>
	<defs>
		<rect id="SVGID_1_" width="500" height="500"/>
	</defs>
	<clipPath id="SVGID_2_">
		<use xlink:href="#SVGID_1_"  style="overflow:visible;"/>
	</clipPath>
	<path id="indiecampers_icon_marker" class="indie-icon-pin-0" d="M250,83.4c-72.3,0-131.1,58.8-131.1,131.1c0,23.7,6.1,48.8,18.2,74.7
		c9.5,20.4,22.7,41.4,39.3,62.4c28.1,35.5,55.8,58.4,57,59.3c4.7,3.8,10.7,5.8,16.7,5.8s12-1.9,16.7-5.8c1.2-0.9,28.9-23.8,57-59.3
		c16.6-20.9,29.8-41.9,39.3-62.4c12.1-25.9,18.2-51,18.2-74.7C381.1,142.2,322.3,83.4,250,83.4z M250,269.1
		c-30.1,0-54.6-24.5-54.6-54.6s24.5-54.6,54.6-54.6s54.6,24.5,54.6,54.6S280.1,269.1,250,269.1z"/>
</g>
</svg>
