<?xml version="1.0" encoding="utf-8"?>
<!-- Generator: Adobe Illustrator 25.0.0, SVG Export Plug-In . SVG Version: 6.00 Build 0)  -->
<svg version="1.1" id="Layer_1" xmlns="http://www.w3.org/2000/svg" xmlns:xlink="http://www.w3.org/1999/xlink" x="0px" y="0px"
	 viewBox="0 0 500 500" style="enable-background:new 0 0 500 500;" xml:space="preserve">
<style type="text/css">
	.indie-icon-season-shield2-0{clip-path:url(#SVGID_2_);fill:none;stroke:#505050;stroke-width:16;stroke-linecap:round;stroke-miterlimit:10;}
</style>
<g>
	<defs>
		<rect id="SVGID_1_" width="500" height="500"/>
	</defs>
	<clipPath id="SVGID_2_">
		<use xlink:href="#SVGID_1_"  style="overflow:visible;"/>
	</clipPath>
	<path class="indie-icon-season-shield2-0" d="M256,85.7c43.2,41.6,98.4,56.8,119,61c4.4,0.9,7.5,4.7,7.5,9.2v97.9v4.5c0,0.6,0,1.3-0.1,1.9
		c-1.3,10.4-15,93.6-124.7,154.5c-4.8,2.7-10.5,2.7-15.3,0c-109.7-60.9-123.4-144.1-124.7-154.5c-0.1-0.6-0.1-1.3-0.1-1.9v-4.5v-98
		c0-4.4,3.1-8.2,7.4-9.1c20.5-4.2,75.8-19.3,119-61c1.6-1.5,3.8-2.4,6-2.4l0,0C252.2,83.3,254.4,84.2,256,85.7z"/>
</g>
</svg>
