<?xml version="1.0" encoding="utf-8"?>
<!-- Generator: Adobe Illustrator 25.0.0, SVG Export Plug-In . SVG Version: 6.00 Build 0)  -->
<svg version="1.1" id="Layer_1" xmlns="http://www.w3.org/2000/svg" xmlns:xlink="http://www.w3.org/1999/xlink" x="0px" y="0px"
	 viewBox="0 0 500 500" style="enable-background:new 0 0 500 500;" xml:space="preserve">
<style type="text/css">
	.indie-icon-shower-0{clip-path:url(#SVGID_2_);}
	.indie-icon-shower-1{fill:none;stroke:#505050;stroke-width:16;stroke-linecap:round;stroke-miterlimit:10;}
</style>
<g>
	<defs>
		<rect id="SVGID_1_" x="0.5" width="500" height="500"/>
	</defs>
	<clipPath id="SVGID_2_">
		<use xlink:href="#SVGID_1_"  style="overflow:visible;"/>
	</clipPath>
	<g class="indie-icon-shower-0">
		<path class="indie-icon-shower-1" d="M416.7,83.3H228c-16.2,0-29.4,13.2-29.4,29.4v106"/>
		<path class="indie-icon-shower-1" d="M203.4,218.7H192c-42.6,0-108.6,28.3-108.6,54.4l0,0c0,10.5,8.5,19.1,19.1,19.1h192.6
			c10.5,0,19.1-8.5,19.1-19.1l0,0C314,251.2,245.9,218.7,203.4,218.7z"/>
		<line class="indie-icon-shower-1" x1="108.5" y1="323.6" x2="108.5" y2="341.8"/>
		<line class="indie-icon-shower-1" x1="138.2" y1="362.9" x2="138.2" y2="381.2"/>
		<line class="indie-icon-shower-1" x1="256.9" y1="362.9" x2="256.9" y2="381.2"/>
		<line class="indie-icon-shower-1" x1="197.6" y1="362.9" x2="197.6" y2="381.2"/>
		<line class="indie-icon-shower-1" x1="167.9" y1="323.6" x2="167.9" y2="341.8"/>
		<line class="indie-icon-shower-1" x1="230.5" y1="398.3" x2="230.5" y2="416.6"/>
		<line class="indie-icon-shower-1" x1="164.7" y1="398.3" x2="164.7" y2="416.6"/>
		<line class="indie-icon-shower-1" x1="286.6" y1="323.6" x2="286.6" y2="341.8"/>
		<line class="indie-icon-shower-1" x1="227.2" y1="323.6" x2="227.2" y2="341.8"/>
	</g>
</g>
</svg>
