<?xml version="1.0" encoding="utf-8"?>
<!-- Generator: Adobe Illustrator 25.0.0, SVG Export Plug-In . SVG Version: 6.00 Build 0)  -->
<svg version="1.1" id="Layer_1" xmlns="http://www.w3.org/2000/svg" xmlns:xlink="http://www.w3.org/1999/xlink" x="0px" y="0px"
	 viewBox="0 0 500 500" style="enable-background:new 0 0 500 500;" xml:space="preserve">
<style type="text/css">
	.indie-icon-map-0{clip-path:url(#SVGID_2_);}
	.indie-icon-map-1{fill:none;stroke:#505050;stroke-width:16;stroke-linecap:round;stroke-miterlimit:10;}
</style>
<g>
	<defs>
		<rect id="SVGID_1_" x="0.5" width="500" height="500"/>
	</defs>
	<clipPath id="SVGID_2_">
		<use xlink:href="#SVGID_1_"  style="overflow:visible;"/>
	</clipPath>
	<g class="indie-icon-map-0">
		<path class="indie-icon-map-1" d="M410.2,343.7l-102.8,41.5c-1.2,0.2-2.4,0.2-3.6-0.2l-109.2-48c-1.2-0.4-2.4-0.5-3.7-0.2l-98.2,30.5
			c-4.9,1-9.4-3.2-9.4-8.9V154.8c0-4.4,2.7-8.1,6.5-8.9L191,114.8c1.2-0.3,2.5-0.2,3.7,0.2l109.1,48c1.2,0.4,2.4,0.5,3.6,0.2
			l99.9-40.9c4.9-1,9.3,3.3,9.3,8.9v203.6C416.7,339.2,414,342.9,410.2,343.7z"/>
		<line class="indie-icon-map-1" x1="192.8" y1="114.4" x2="192.8" y2="333.5"/>
		<line class="indie-icon-map-1" x1="305.6" y1="385.6" x2="305.6" y2="163.4"/>
	</g>
</g>
</svg>
