<?xml version="1.0" encoding="utf-8"?>
<!-- Generator: Adobe Illustrator 25.0.0, SVG Export Plug-In . SVG Version: 6.00 Build 0)  -->
<svg version="1.1" id="Layer_1" xmlns="http://www.w3.org/2000/svg" xmlns:xlink="http://www.w3.org/1999/xlink" x="0px" y="0px"
	 viewBox="0 0 500 500" style="enable-background:new 0 0 500 500;" xml:space="preserve">
<style type="text/css">
	.indie-icon-season-spring-0{clip-path:url(#SVGID_2_);}
	.indie-icon-season-spring-1{fill:none;stroke:#505050;stroke-width:16;stroke-linecap:round;stroke-miterlimit:10;}
</style>
<g>
	<defs>
		<rect id="SVGID_1_" width="500" height="500"/>
	</defs>
	<clipPath id="SVGID_2_">
		<use xlink:href="#SVGID_1_"  style="overflow:visible;"/>
	</clipPath>
	<g class="indie-icon-season-spring-0">
		<path class="indie-icon-season-spring-1" d="M267.2,416.7c0,0,57.7-137.2-82.3-179.9"/>
		<path class="indie-icon-season-spring-1" d="M87.4,186.1c-0.2-3,2-5.7,4.9-6.2c21.6-3.5,107.1-14.8,152.9,19.5c52.7,39.5,40.6,99.8,17.6,114.1
			s-88.9,45.7-138.2-27.4C93.4,240,88.3,200.1,87.4,186.1z"/>
		<path class="indie-icon-season-spring-1" d="M334.8,173c0,0-43.5,28.8-53.8,81"/>
		<path class="indie-icon-season-spring-1" d="M233.3,192c49.4-76.1,137.1-103,158.3-108.5c2.7-0.7,5.4,0.8,6.3,3.4c6.9,21.2,32.6,111.5-6.6,178.2
			C365,309.9,315,315,266.5,310.9"/>
	</g>
</g>
</svg>
